<?xml version="1.0" encoding="utf-8"?>
<!-- Generator: Adobe Illustrator 19.1.0, SVG Export Plug-In . SVG Version: 6.00 Build 0)  -->
<svg version="1.1" id="Capa_1" xmlns="http://www.w3.org/2000/svg" xmlns:xlink="http://www.w3.org/1999/xlink" x="0px" y="0px"
	 viewBox="-383 145 512 512" style="enable-background:new -383 145 512 512;" xml:space="preserve">
<style type="text/css">
	.st0{fill:#0E80C8;}
	.st1{fill:#CA136F;}
	.st2{fill:#C6C6C6;}
	.st3{fill:#888A8D;}
</style>
<path class="st0" d="M129,401c0,20.4-11.7,37.9-30.5,45.7l-413.1,171.4c-17,7.1-36.8,4.3-51.3-8.3c-14.2-12.3-20.2-31.3-15.5-49.6
	l36.8-144.2l3.8-15l-3.8-15l-36.8-144.2c-4.7-18.3,1.3-37.3,15.5-49.6c14.1-12.2,33.7-15.6,51.3-8.3L98.5,355.3
	C117.3,363.1,129,380.6,129,401z"/>
<path class="st1" d="M-344.7,416l-36.8,144.2c-4.7,18.3,1.3,37.3,15.5,49.6c14.5,12.6,34.3,15.4,51.3,8.3L98.4,446.7
	c18.8-7.8,30.5-25.3,30.5-45.7h-469.8L-344.7,416z"/>
<path class="st2" d="M-149.7,401c0,8.3-6.7,15-15,15h-180l3.8-15l-3.8-15h180C-156.4,386-149.7,392.7-149.7,401z"/>
<path class="st3" d="M-344.7,416h180c8.3,0,15-6.7,15-15h-191.2L-344.7,416z"/>
</svg>
