<?xml version="1.0" encoding="utf-8"?>
<!-- Generator: Adobe Illustrator 19.1.0, SVG Export Plug-In . SVG Version: 6.00 Build 0)  -->
<svg version="1.1" id="Capa_1" xmlns="http://www.w3.org/2000/svg" xmlns:xlink="http://www.w3.org/1999/xlink" x="0px" y="0px"
	 viewBox="0 0 505 196" style="enable-background:new 0 0 505 196;" xml:space="preserve">
<style type="text/css">
	.st0{fill:#9C1747;}
	.st1{fill:#C61066;}
	.st2{fill:#FFFFFF;}
</style>
<path class="st0" d="M462.8,186.9H61.1c-19.1,0-34.6-15.5-34.6-34.6V64.6C26.5,45.5,42,30,61.1,30h401.7c19.1,0,34.6,15.5,34.6,34.6
	v87.7C497.4,171.4,481.9,186.9,462.8,186.9z"/>
<path class="st1" d="M447.1,168.3H45.4c-19.1,0-34.6-15.5-34.6-34.6V45.9c0-19.1,15.5-34.6,34.6-34.6h401.7
	c19.1,0,34.6,15.5,34.6,34.6v87.7C481.7,152.8,466.2,168.3,447.1,168.3z"/>
<g>
	<path class="st2" d="M58.1,108.3c-0.1,2.2-0.7,4.1-1.8,5.4c-1.2,1.5-2.8,2.2-4.8,2.2c-1.9,0-3.5-0.7-4.7-2.1
		c-1.2-1.3-1.8-3-1.8-5.1c0-2.8,1.1-5.1,3.2-6.8c1-0.7,1.6-1.4,2-2.1c0.3-0.6,0.5-1.5,0.5-2.5v-1.3h2.7v1.8c0,2.4-1,4.4-3,6
		c-0.9,0.7-1.5,1.4-1.9,2.1c-0.4,0.7-0.6,1.6-0.6,2.6c0,1.3,0.3,2.3,1,3.1c0.7,0.8,1.6,1.2,2.7,1.2c1.1,0,2-0.4,2.7-1.2
		c0.7-0.8,1.1-1.9,1.2-3.4H58.1z M50.6,90.8c-0.3-0.4-0.5-1-0.5-1.6c0-0.6,0.2-1.2,0.5-1.6c0.3-0.4,0.7-0.7,1.2-0.7
		c0.5,0,0.9,0.2,1.2,0.7c0.3,0.4,0.5,1,0.5,1.6c0,0.6-0.2,1.2-0.5,1.6c-0.3,0.4-0.7,0.7-1.2,0.7C51.3,91.5,50.9,91.3,50.6,90.8z"/>
	<path class="st2" d="M74.6,108.9H61.1V80.5h13.6v3.2H63.8v9.1h10.3v3.2H63.8v9.8h10.8V108.9z"/>
	<path class="st2" d="M77.9,87.7h2.5v3.5h0.1c1-2.4,2.8-3.6,5.3-3.6c1.8,0,3.2,0.7,4.3,2.1c1,1.4,1.6,3.3,1.6,5.7v13.6H89v-13
		c0-1.7-0.3-3.1-1-4c-0.7-0.9-1.7-1.4-3-1.4c-1.3,0-2.4,0.6-3.2,1.7c-0.8,1.1-1.2,2.6-1.2,4.4v12.3h-2.6V87.7z"/>
	<path class="st2" d="M114,91.1L114,91.1l0-3.5h2.5V116h-2.6v-10.5h-0.1c-1.1,2.4-2.8,3.6-5.2,3.6c-2.1,0-3.7-1-5-3
		c-1.3-2-1.9-4.6-1.9-7.8c0-3.2,0.6-5.9,1.9-7.8c1.3-2,3-3,5-3C111.2,87.5,112.9,88.7,114,91.1z M112.6,103.9
		c0.9-1.4,1.3-3.3,1.3-5.6c0-2.3-0.4-4.2-1.3-5.6c-0.9-1.4-2-2.2-3.5-2.2s-2.6,0.7-3.4,2.1c-0.9,1.4-1.3,3.3-1.3,5.7
		c0,2.4,0.4,4.3,1.3,5.7s2,2.1,3.4,2.1S111.7,105.3,112.6,103.9z"/>
	<path class="st2" d="M133.8,108.9h-2.5v-3.5h-0.1c-1,2.5-2.8,3.7-5.4,3.7c-1.8,0-3.2-0.7-4.2-2.1c-1-1.4-1.6-3.3-1.6-5.7V87.7h2.6
		v13c0,1.7,0.3,3.1,1,4c0.7,0.9,1.7,1.4,2.9,1.4c1.3,0,2.4-0.6,3.2-1.7c0.8-1.1,1.2-2.6,1.2-4.4V87.7h2.6V108.9z"/>
	<path class="st2" d="M150.8,102.8c-0.2,1.8-1,3.3-2.2,4.5c-1.3,1.2-2.8,1.8-4.5,1.8c-2.3,0-4.1-1-5.5-2.9c-1.3-1.9-2-4.5-2-7.8
		c0-3.3,0.7-5.9,2-7.9c1.3-2,3.1-3,5.4-3c2.2,0,3.9,0.9,5.2,2.8c1.3,1.9,1.9,4.4,1.9,7.6v1.3h-11.7v0.2c0,2,0.4,3.6,1.3,4.8
		s2,1.8,3.5,1.8c1,0,1.9-0.3,2.7-0.9c0.7-0.6,1.2-1.4,1.5-2.4H150.8z M140.7,92.1c-0.8,1.1-1.3,2.6-1.4,4.4h9c0-1.8-0.5-3.3-1.3-4.4
		c-0.8-1.1-1.8-1.7-3.1-1.7C142.6,90.5,141.6,91,140.7,92.1z M142.8,84.3l3.2-5.9h3l-4,5.9H142.8z"/>
	<path class="st2" d="M164.8,82.9v4.8h3.2v2.8h-3.2v12.8c0,1.9,0.7,2.8,2,2.8c0.5,0,0.8,0,1.1-0.1v2.9c-0.4,0.1-1,0.2-1.7,0.2
		c-1.5,0-2.5-0.4-3.2-1.3c-0.6-0.9-0.9-2.3-0.9-4.4V90.5h-2.3v-2.8h2.3v-4.8H164.8z"/>
	<path class="st2" d="M183.9,102.8c-0.2,1.8-1,3.3-2.2,4.5c-1.3,1.2-2.8,1.8-4.5,1.8c-2.3,0-4.1-1-5.5-2.9c-1.3-1.9-2-4.5-2-7.8
		c0-3.3,0.7-5.9,2-7.9c1.3-2,3.1-3,5.4-3c2.2,0,3.9,0.9,5.2,2.8c1.3,1.9,1.9,4.4,1.9,7.6v1.3h-11.7v0.2c0,2,0.4,3.6,1.3,4.8
		s2,1.8,3.5,1.8c1,0,1.9-0.3,2.7-0.9c0.7-0.6,1.2-1.4,1.5-2.4H183.9z M173.8,92.1c-0.8,1.1-1.3,2.6-1.4,4.4h9c0-1.8-0.5-3.3-1.3-4.4
		c-0.8-1.1-1.8-1.7-3.1-1.7C175.7,90.5,174.6,91,173.8,92.1z"/>
	<path class="st2" d="M207.2,90.4c1.3,2,1.9,4.6,1.9,7.8c0,3.2-0.6,5.8-1.9,7.8c-1.3,2-3,3-5,3c-2.4,0-4.1-1.2-5.2-3.6h-0.1V116
		h-2.6V87.7h2.5v3.5h0.1c0.5-1.1,1.2-2,2.2-2.7c1-0.7,2-1,3.1-1C204.2,87.5,205.9,88.5,207.2,90.4z M205.1,103.9
		c0.9-1.4,1.3-3.3,1.3-5.7c0-2.3-0.4-4.2-1.3-5.6c-0.9-1.4-2-2.1-3.5-2.1c-1.4,0-2.5,0.7-3.4,2.1c-0.9,1.4-1.3,3.3-1.3,5.6
		c0,2.3,0.4,4.2,1.3,5.6c0.9,1.4,2,2.1,3.4,2.1C203.1,106.1,204.3,105.4,205.1,103.9z"/>
	<path class="st2" d="M225.6,108.9h-2.5v-3.5H223c-1,2.5-2.8,3.7-5.4,3.7c-1.8,0-3.2-0.7-4.2-2.1c-1-1.4-1.6-3.3-1.6-5.7V87.7h2.6
		v13c0,1.7,0.3,3.1,1,4c0.7,0.9,1.7,1.4,2.9,1.4c1.3,0,2.4-0.6,3.2-1.7c0.8-1.1,1.2-2.6,1.2-4.4V87.7h2.6V108.9z"/>
	<path class="st2" d="M242.6,102.8c-0.2,1.8-1,3.3-2.2,4.5c-1.3,1.2-2.8,1.8-4.5,1.8c-2.3,0-4.1-1-5.5-2.9c-1.3-1.9-2-4.5-2-7.8
		c0-3.3,0.7-5.9,2-7.9c1.3-2,3.1-3,5.4-3c2.2,0,3.9,0.9,5.2,2.8c1.3,1.9,1.9,4.4,1.9,7.6v1.3h-11.7v0.2c0,2,0.4,3.6,1.3,4.8
		s2,1.8,3.5,1.8c1,0,1.9-0.3,2.7-0.9c0.7-0.6,1.2-1.4,1.5-2.4H242.6z M232.5,92.1c-0.8,1.1-1.3,2.6-1.4,4.4h9c0-1.8-0.5-3.3-1.3-4.4
		c-0.8-1.1-1.8-1.7-3.1-1.7C234.4,90.5,233.3,91,232.5,92.1z"/>
	<path class="st2" d="M246.7,106.1c-1.3-2-2-4.6-2-7.8c0-3.2,0.7-5.8,2-7.8c1.3-2,2.9-3,5-3c2.4,0,4.2,1.2,5.2,3.6h0.1V79.2h2.6
		v29.7h-2.5v-3.6h0c-1.1,2.5-2.9,3.8-5.3,3.8C249.7,109.1,248,108.1,246.7,106.1z M248.8,92.6c-0.9,1.4-1.3,3.3-1.3,5.6
		c0,2.4,0.4,4.2,1.3,5.7c0.9,1.4,2,2.1,3.5,2.1c1.4,0,2.6-0.7,3.4-2.1c0.9-1.4,1.3-3.3,1.3-5.6c0-2.3-0.4-4.2-1.3-5.6
		c-0.9-1.4-2-2.1-3.4-2.1C250.8,90.5,249.7,91.2,248.8,92.6z"/>
	<path class="st2" d="M264.6,106.2c-1.4-2-2-4.6-2-7.9c0-3.3,0.7-5.9,2-7.9s3.2-2.9,5.5-2.9s4.1,1,5.5,2.9c1.4,2,2,4.6,2,7.9
		c0,3.3-0.7,5.9-2,7.9c-1.4,2-3.2,2.9-5.5,2.9S266,108.1,264.6,106.2z M273.7,104c0.9-1.4,1.3-3.3,1.3-5.7c0-2.4-0.4-4.4-1.3-5.7
		c-0.8-1.4-2-2-3.6-2s-2.7,0.7-3.6,2c-0.9,1.4-1.3,3.3-1.3,5.7c0,2.4,0.4,4.3,1.3,5.7c0.9,1.4,2,2,3.6,2
		C271.6,106.1,272.8,105.4,273.7,104z"/>
	<path class="st2" d="M288.6,107.4c-1-1.1-1.5-2.7-1.5-4.5c0-1.8,0.5-3.3,1.6-4.3c1.1-1.1,2.6-1.7,4.6-1.8l4.6-0.4v-1.8
		c0-1.3-0.3-2.3-1-3c-0.6-0.7-1.6-1.1-2.8-1.1c-1,0-1.7,0.3-2.4,0.9c-0.7,0.6-1.1,1.4-1.2,2.4h-2.5c0-1.8,0.7-3.3,1.8-4.5
		c1.2-1.2,2.6-1.8,4.4-1.8c1.9,0,3.5,0.6,4.6,1.9c1.2,1.2,1.7,2.9,1.7,5v14.6H298v-3.7h-0.1c-0.5,1.2-1.2,2.1-2.1,2.8
		c-1,0.7-2,1.1-3.1,1.1C291,109.1,289.6,108.5,288.6,107.4z M296.5,104.6c0.9-1,1.3-2.3,1.3-3.8v-1.7l-4.3,0.4
		c-2.5,0.2-3.7,1.3-3.7,3.4c0,1,0.3,1.8,0.9,2.4c0.6,0.6,1.4,0.9,2.5,0.9C294.5,106.1,295.6,105.6,296.5,104.6z"/>
	<path class="st2" d="M304.2,116.5v-2.9c0.3,0.1,0.7,0.1,1.1,0.1c0.8,0,1.4-0.3,1.8-0.8c0.5-0.5,0.8-1.4,1.2-2.7l0.3-1.3l-6.1-21.3
		h2.8l4.6,17.8h0.1l4.6-17.8h2.8l-6.4,22.6c-0.7,2.5-1.4,4.1-2.2,5c-0.8,0.9-1.9,1.4-3.4,1.4C305,116.6,304.6,116.6,304.2,116.5z"/>
	<path class="st2" d="M333.2,108.9h-2.5v-3.5h-0.1c-1,2.5-2.8,3.7-5.4,3.7c-1.8,0-3.2-0.7-4.2-2.1c-1-1.4-1.6-3.3-1.6-5.7V87.7h2.6
		v13c0,1.7,0.3,3.1,1,4c0.7,0.9,1.7,1.4,2.9,1.4c1.3,0,2.4-0.6,3.2-1.7c0.8-1.1,1.2-2.6,1.2-4.4V87.7h2.6V108.9z"/>
	<path class="st2" d="M337.9,106.1c-1.3-2-2-4.6-2-7.8c0-3.2,0.7-5.8,2-7.8c1.3-2,2.9-3,5-3c2.4,0,4.2,1.2,5.2,3.6h0.1V79.2h2.6
		v29.7h-2.5v-3.6h0c-1.1,2.5-2.9,3.8-5.3,3.8C340.9,109.1,339.2,108.1,337.9,106.1z M340,92.6c-0.9,1.4-1.3,3.3-1.3,5.6
		c0,2.4,0.4,4.2,1.3,5.7c0.9,1.4,2,2.1,3.5,2.1c1.4,0,2.6-0.7,3.4-2.1c0.9-1.4,1.3-3.3,1.3-5.6c0-2.3-0.4-4.2-1.3-5.6
		c-0.9-1.4-2-2.1-3.4-2.1C342,90.5,340.8,91.2,340,92.6z"/>
	<path class="st2" d="M355.3,107.4c-1-1.1-1.5-2.7-1.5-4.5c0-1.8,0.5-3.3,1.6-4.3c1.1-1.1,2.6-1.7,4.6-1.8l4.6-0.4v-1.8
		c0-1.3-0.3-2.3-1-3c-0.6-0.7-1.6-1.1-2.8-1.1c-1,0-1.7,0.3-2.4,0.9c-0.7,0.6-1.1,1.4-1.2,2.4h-2.5c0-1.8,0.7-3.3,1.8-4.5
		c1.2-1.2,2.6-1.8,4.4-1.8c1.9,0,3.5,0.6,4.6,1.9c1.2,1.2,1.7,2.9,1.7,5v14.6h-2.5v-3.7h-0.1c-0.5,1.2-1.2,2.1-2.1,2.8
		c-1,0.7-2,1.1-3.1,1.1C357.7,109.1,356.3,108.5,355.3,107.4z M363.2,104.6c0.9-1,1.3-2.3,1.3-3.8v-1.7l-4.3,0.4
		c-2.5,0.2-3.7,1.3-3.7,3.4c0,1,0.3,1.8,0.9,2.4c0.6,0.6,1.4,0.9,2.5,0.9C361.2,106.1,362.3,105.6,363.2,104.6z"/>
	<path class="st2" d="M370.6,87.7h2.5v3.5h0.1c0.2-1.1,0.7-2,1.4-2.7c0.7-0.7,1.6-1,2.5-1c0.4,0,0.8,0,1,0.1V91
		c-0.3-0.2-0.7-0.2-1.4-0.2c-1.1,0-1.9,0.5-2.5,1.4c-0.6,0.9-1,2.1-1,3.6v13.1h-2.6V87.7z"/>
	<path class="st2" d="M388.1,79.2h2.6v11.9h0.1c1-2.4,2.8-3.6,5.3-3.6c1.8,0,3.2,0.7,4.3,2.2c1.1,1.4,1.7,3.4,1.7,5.7v13.6h-2.6V96
		c0-1.7-0.4-3-1.1-4c-0.7-1-1.8-1.4-3-1.4c-1.4,0-2.5,0.6-3.3,1.7c-0.8,1.1-1.3,2.6-1.3,4.5v12.2h-2.6V79.2z"/>
	<path class="st2" d="M406.8,106.2c-1.4-2-2-4.6-2-7.9c0-3.3,0.7-5.9,2-7.9s3.2-2.9,5.5-2.9s4.1,1,5.5,2.9c1.4,2,2,4.6,2,7.9
		c0,3.3-0.7,5.9-2,7.9c-1.4,2-3.2,2.9-5.5,2.9S408.2,108.1,406.8,106.2z M415.9,104c0.9-1.4,1.3-3.3,1.3-5.7c0-2.4-0.4-4.4-1.3-5.7
		c-0.8-1.4-2-2-3.6-2s-2.7,0.7-3.6,2c-0.9,1.4-1.3,3.3-1.3,5.7c0,2.4,0.4,4.3,1.3,5.7c0.9,1.4,2,2,3.6,2
		C413.9,106.1,415.1,105.4,415.9,104z"/>
	<path class="st2" d="M422.4,116.5v-2.9c0.3,0.1,0.7,0.1,1.1,0.1c0.8,0,1.4-0.3,1.8-0.8c0.5-0.5,0.8-1.4,1.2-2.7l0.3-1.3l-6.1-21.3
		h2.8l4.6,17.8h0.1l4.6-17.8h2.8l-6.4,22.6c-0.7,2.5-1.4,4.1-2.2,5c-0.8,0.9-1.9,1.4-3.4,1.4C423.2,116.6,422.8,116.6,422.4,116.5z"
		/>
	<path class="st2" d="M436.8,87.9c0.1-2.2,0.7-4.1,1.8-5.4c1.2-1.5,2.8-2.2,4.8-2.2c1.9,0,3.4,0.7,4.7,2c1.2,1.3,1.8,3,1.8,5.1
		c0,2.9-1.1,5.1-3.2,6.8c-1,0.7-1.6,1.4-2,2.1c-0.3,0.6-0.5,1.5-0.5,2.5v1.3h-2.7v-1.8c0-2.4,1-4.4,3-6c0.9-0.7,1.5-1.4,1.9-2.1
		c0.4-0.7,0.6-1.6,0.6-2.6c0-1.2-0.3-2.2-1-3c-0.7-0.8-1.6-1.2-2.7-1.2c-1.1,0-2.1,0.4-2.7,1.2c-0.7,0.8-1.1,1.9-1.2,3.4H436.8z
		 M441.7,108.5c-0.3-0.4-0.5-1-0.5-1.6c0-0.6,0.2-1.2,0.5-1.6c0.3-0.4,0.7-0.7,1.2-0.7c0.5,0,0.9,0.2,1.2,0.7c0.3,0.4,0.5,1,0.5,1.6
		c0,0.6-0.2,1.2-0.5,1.6c-0.3,0.4-0.7,0.7-1.2,0.7C442.4,109.1,442,108.9,441.7,108.5z"/>
</g>
</svg>
