<?xml version="1.0" encoding="utf-8"?>
<!-- Generator: Adobe Illustrator 19.1.0, SVG Export Plug-In . SVG Version: 6.00 Build 0)  -->
<svg version="1.1" id="Capa_1" xmlns="http://www.w3.org/2000/svg" xmlns:xlink="http://www.w3.org/1999/xlink" x="0px" y="0px"
	 viewBox="-459 321 361 160" style="enable-background:new -459 321 361 160;" xml:space="preserve">
<style type="text/css">
	.st0{fill:#164B85;}
	.st1{fill:#1860AA;}
	.st2{enable-background:new    ;}
	.st3{fill:#FFFFFF;}
</style>
<path class="st0" d="M-137.9,474.7h-266.8c-19.1,0-34.6-15.5-34.6-34.6v-62.9c0-19.1,15.5-34.6,34.6-34.6h266.8
	c19.1,0,34.6,15.5,34.6,34.6V440C-103.2,459.2-118.7,474.7-137.9,474.7z"/>
<path class="st1" d="M-150.2,460.8H-417c-19.1,0-34.6-15.5-34.6-34.6v-62.9c0-19.1,15.5-34.6,34.6-34.6h266.8
	c19.1,0,34.6,15.5,34.6,34.6v62.8C-115.6,445.3-131.1,460.8-150.2,460.8z"/>
<g class="st2">
	<path class="st3" d="M-395.2,392.4c-0.4-0.5-0.6-1.1-0.6-1.8c0-0.7,0.2-1.3,0.6-1.8c0.4-0.5,0.8-0.7,1.4-0.7c0.6,0,1,0.2,1.4,0.7
		c0.4,0.5,0.6,1.1,0.6,1.8c0,0.7-0.2,1.3-0.6,1.8c-0.4,0.5-0.8,0.7-1.4,0.7C-394.4,393.2-394.8,392.9-395.2,392.4z M-395.2,399h2.7
		l0.2,21.3h-3.1L-395.2,399z"/>
	<path class="st3" d="M-370.3,412.7v-14.5h-13.5v14.5h-3.1v-31.9h3.1v13.8h13.5v-13.8h3.1v31.9H-370.3z"/>
	<path class="st3" d="M-361.4,409.7c-1.5-2.2-2.3-5.1-2.3-8.8s0.8-6.6,2.3-8.8c1.5-2.2,3.6-3.3,6.2-3.3c2.6,0,4.6,1.1,6.2,3.3
		c1.5,2.2,2.3,5.1,2.3,8.8s-0.8,6.6-2.3,8.8c-1.5,2.2-3.6,3.3-6.2,3.3C-357.8,413-359.9,411.9-361.4,409.7z M-351.3,407.2
		c1-1.5,1.4-3.7,1.4-6.4c0-2.7-0.5-4.9-1.4-6.4c-1-1.5-2.3-2.3-4-2.3c-1.7,0-3,0.8-4,2.3c-1,1.5-1.4,3.7-1.4,6.4s0.5,4.9,1.4,6.4
		c1,1.5,2.3,2.3,4,2.3C-353.6,409.5-352.2,408.8-351.3,407.2z"/>
	<path class="st3" d="M-343.5,379.4h3v33.3h-3V379.4z"/>
	<path class="st3" d="M-335.5,411c-1.1-1.3-1.7-3-1.7-5.1c0-2,0.6-3.7,1.8-4.8c1.2-1.2,2.9-1.9,5.1-2l5.1-0.4v-2
		c0-1.5-0.4-2.6-1.1-3.4c-0.7-0.8-1.8-1.2-3.1-1.2c-1.1,0-2,0.3-2.7,1c-0.7,0.7-1.2,1.6-1.4,2.7h-2.8c0-2,0.7-3.7,2.1-5.1
		c1.3-1.4,3-2,4.9-2c2.2,0,3.9,0.7,5.2,2.1c1.3,1.4,1.9,3.3,1.9,5.6v16.4h-2.8v-4.1h-0.1c-0.5,1.3-1.3,2.4-2.4,3.2
		c-1.1,0.8-2.2,1.2-3.5,1.2C-332.9,413-334.4,412.3-335.5,411z M-326.7,407.9c1-1.1,1.5-2.6,1.5-4.3v-1.9l-4.8,0.4
		c-2.8,0.2-4.2,1.5-4.2,3.8c0,1.1,0.3,2,1,2.7c0.7,0.7,1.6,1,2.8,1C-328.9,409.6-327.7,409.1-326.7,407.9z"/>
	<path class="st3" d="M-308.4,390.6c1.3-1.3,2.9-1.9,4.9-1.9c1.9,0,3.4,0.6,4.7,1.9c1.3,1.3,1.9,2.9,2,4.9h-2.8
		c-0.1-1.1-0.5-2-1.2-2.7c-0.7-0.6-1.6-1-2.7-1c-1.1,0-2,0.3-2.7,1c-0.7,0.6-1,1.5-1,2.5c0,1.6,1,2.7,3.1,3.4l2.8,0.9
		c1.8,0.6,3.2,1.4,3.9,2.3c0.7,0.9,1.1,2.3,1.1,4c0,2-0.7,3.7-2,5c-1.3,1.3-3.1,1.9-5.2,1.9c-2,0-3.6-0.6-4.9-1.9
		c-1.3-1.3-2-3-2.2-5h3c0.3,2.5,1.8,3.7,4.3,3.7c1.2,0,2.2-0.3,3-1c0.7-0.6,1.1-1.5,1.1-2.5c0-0.8-0.2-1.5-0.6-2
		c-0.4-0.5-1.2-0.9-2.2-1.3l-3.2-1.1c-3.2-1.1-4.8-3.2-4.8-6.4C-310.3,393.6-309.7,391.9-308.4,390.6z"/>
	<path class="st3" d="M-291.9,409.7c-1.5-2.2-2.3-5.1-2.3-8.8s0.8-6.6,2.3-8.8c1.5-2.2,3.6-3.3,6.2-3.3c2.6,0,4.6,1.1,6.2,3.3
		c1.5,2.2,2.3,5.1,2.3,8.8s-0.8,6.6-2.3,8.8c-1.5,2.2-3.6,3.3-6.2,3.3C-288.3,413-290.3,411.9-291.9,409.7z M-281.7,407.2
		c1-1.5,1.4-3.7,1.4-6.4c0-2.7-0.5-4.9-1.4-6.4c-1-1.5-2.3-2.3-4-2.3c-1.7,0-3,0.8-4,2.3c-1,1.5-1.4,3.7-1.4,6.4s0.5,4.9,1.4,6.4
		c1,1.5,2.3,2.3,4,2.3C-284,409.5-282.7,408.8-281.7,407.2z"/>
	<path class="st3" d="M-274.4,421.2V418c0.3,0.1,0.7,0.1,1.2,0.1c0.9,0,1.5-0.3,2-0.9c0.5-0.6,1-1.6,1.3-3l0.4-1.4l-6.8-23.9h3.1
		l5.1,19.9h0.1l5.1-19.9h3.1l-7.2,25.3c-0.8,2.8-1.6,4.6-2.5,5.7c-0.9,1-2.2,1.5-3.8,1.5C-273.5,421.4-274,421.3-274.4,421.2z"/>
	<path class="st3" d="M-235,403.6h-9.8l-2.5,9.1h-3.2l9-31.9h3l9,31.9h-3.2L-235,403.6z M-243.9,400.2h8l-3.9-14.5h-0.1
		L-243.9,400.2z"/>
	<path class="st3" d="M-218.1,380.8c3.6,0,6.5,1.4,8.5,4.2c2,2.8,3.1,6.7,3.1,11.7c0,5-1,8.9-3.1,11.8c-2,2.8-4.9,4.2-8.5,4.2h-8.4
		v-31.9H-218.1z M-223.5,409.2h5.2c2.8,0,4.9-1.1,6.4-3.2c1.5-2.1,2.2-5.2,2.2-9.1c0-4-0.7-7.1-2.2-9.2c-1.5-2.1-3.6-3.2-6.4-3.2
		h-5.2V409.2z"/>
	<path class="st3" d="M-189.9,403.6h-9.8l-2.5,9.1h-3.2l9-31.9h3l9,31.9h-3.2L-189.9,403.6z M-198.8,400.2h8l-3.9-14.5h-0.1
		L-198.8,400.2z"/>
	<path class="st3" d="M-180.5,412.2c-0.4-0.5-0.6-1.1-0.6-1.8c0-0.7,0.2-1.3,0.6-1.8c0.4-0.5,0.8-0.7,1.4-0.7c0.6,0,1,0.2,1.4,0.7
		c0.4,0.5,0.6,1.1,0.6,1.8c0,0.7-0.2,1.3-0.6,1.8c-0.4,0.5-0.8,0.7-1.4,0.7C-179.7,413-180.2,412.7-180.5,412.2z M-177.6,380.8
		l-0.2,21.3h-2.7l-0.2-21.3H-177.6z"/>
</g>
</svg>
